<?xml version="1.0" encoding="UTF-8"?>
<!DOCTYPE svg PUBLIC "-//W3C//DTD SVG 1.1//EN" "http://www.w3.org/Graphics/SVG/1.1/DTD/svg11.dtd">
<!-- Creator: CorelDRAW 2020 (64 Bit) -->
<svg xmlns="http://www.w3.org/2000/svg" xml:space="preserve" width="420mm" height="297mm" version="1.1" style="shape-rendering:geometricPrecision; text-rendering:geometricPrecision; image-rendering:optimizeQuality; fill-rule:evenodd; clip-rule:evenodd"
viewBox="0 0 420 297"
 xmlns:xlink="http://www.w3.org/1999/xlink"
 xmlns:xodm="http://www.corel.com/coreldraw/odm/2003">
 <defs>
  <style type="text/css">
   <![CDATA[
    .fil0 {fill:black}
    .fil1 {fill:black;fill-rule:nonzero}
   ]]>
  </style>
 </defs>
 <g id="Camada_x0020_1">
  <metadata id="CorelCorpID_0Corel-Layer"/>
  <g id="_1798245929760">
   <path class="fil0" d="M63.5799 167.8153c10.8112,-33.772 21.7253,-70.1183 28.0061,-84.1213 9.4726,-17.9157 -9.4726,64.1464 -9.9875,66.2056 4.2216,1.0297 24.9173,-79.0761 14.2089,-76.399 -1.6473,0.4118 -3.6036,2.9859 -5.9718,8.237 -6.2808,14.106 -19.5631,50.8641 -30.3743,84.7392 -8.4431,26.2558 -15.3416,50.8641 -16.4742,61.8811 -0.6178,6.2809 0.8238,9.1639 3.7067,9.4728 0.4119,0 0.8237,0 1.3385,-0.103 4.6334,-1.1326 11.8409,-9.5756 20.181,-19.2543 7.8251,-9.2667 16.6801,-19.563 24.1963,-25.3291 4.1186,-3.0889 7.8253,-4.8392 11.2231,-5.6629 9.1638,-2.1622 15.8565,2.2651 19.975,5.1482 1.7504,1.1325 3.0889,2.0592 4.4274,2.3681l0 0c0.8237,0.206 1.5445,0.3089 2.2653,0.103 2.574,-0.6178 2.9859,-4.3245 2.0592,-9.8845 -1.6475,-10.7082 -4.3245,-18.8424 -5.457,-18.4305 -0.9267,0.3089 -0.9267,5.7659 1.2355,19.0483 0.4118,2.883 1.0296,4.9422 0.9267,4.9422 0,0 0,0 0,0 -0.6178,-0.103 -1.6474,-0.8236 -2.986,-1.7503 -4.8393,-3.2949 -12.5616,-8.4431 -23.1669,-5.972 -4.0155,1.0297 -8.34,2.986 -13.0763,6.5898 -7.9283,6.0748 -16.989,16.5771 -25.0201,25.9468 -7.8253,9.2668 -14.7239,17.2979 -17.298,17.9157 -0.103,0 -0.206,0 -0.4118,0 -0.1031,0 -0.1031,-1.4416 0.2058,-4.7364 1.0297,-10.7082 7.9283,-34.9047 16.2684,-60.9545zm121.3942 -82.8857c2.78,20.7986 6.2807,47.4662 9.4726,71.9716l0.5148 4.2215 -0.2059 0.3089c-1.2355,3.8097 -2.0592,6.0748 -2.0592,10.1934 0,3.9126 0.7207,9.3697 2.2651,19.4601 1.5445,9.4726 3.8097,23.2699 6.1778,36.8611 2.4712,14.4148 4.9423,28.5208 6.4867,36.4491 0.7208,3.7067 1.3386,7.0015 1.9564,9.8845 0.4119,4.3245 1.0297,6.5896 1.5445,7.2074 1.1325,4.8394 1.9563,6.8986 2.4711,6.6927 0.8237,0 0.8237,-6.1778 0.103,-17.092 -0.103,-1.8533 -0.8238,-7.3104 -1.6475,-14.0031 -0.5148,-3.7067 -1.1325,-8.34 -1.8533,-13.9001 -1.6475,-12.2526 -3.9126,-29.0358 -7.4134,-55.8063 -1.0297,-7.9281 -2.1622,-16.6801 -3.3978,-25.8438l1.0297 -2.8831c2.677,-7.5163 6.7956,-19.3571 12.8704,-37.7877 2.4711,-7.3104 5.1481,-15.6504 7.8253,-24.1964 0,0 0.1029,-0.103 0.1029,-0.206 -1.3385,14.8268 -2.2652,29.6536 -2.3682,40.3619 -0.103,11.6348 0.8237,18.6363 1.8534,21.7252 0.4119,1.2356 0.9267,2.0594 1.4414,2.5742 0.8238,0.6178 1.5445,0.9266 2.3683,0.7208 0.5148,-0.103 1.0295,-0.4119 1.5444,-1.0297 0.6178,-0.7208 1.1326,-2.0593 1.4415,-4.0156 0.3089,-2.0592 0.5148,-4.9423 0.6178,-8.0312 0.2059,-4.7363 0.4119,-9.9875 1.4414,-12.5615 0.103,-0.3089 0,-0.6178 0,-0.7208 0,0 0,0 0,0 1.6475,0.6178 4.8394,4.8393 8.4431,9.6786 5.3541,7.1045 11.7378,15.6505 17.9157,18.3275 2.5741,1.1327 5.0452,1.3386 7.3104,0.7208 2.2652,-0.5148 4.4274,-1.7504 6.3838,-3.3978 5.0451,-4.2215 9.0607,-11.326 11.8407,-17.4009 4.4275,-9.6785 5.5601,-16.6801 6.4867,-23.3727 4.3245,-7.2075 8.649,-13.7971 13.1795,-14.8268 1.3384,-0.4119 2.78,-0.2059 4.2215,0.7208 3.8097,2.3681 8.1341,8.8548 12.1497,15.9593 4.1185,7.3104 7.8252,15.3416 10.2963,20.7987l0.4119 0.8237c2.4711,5.457 3.7067,8.237 5.457,8.7519 0.5149,0.2059 1.0297,0.3089 1.4416,0.2059 1.8534,-0.4119 2.4711,-3.2948 3.3978,-8.0311l0 -0.2059c0.9267,-4.4275 2.2651,-11.2231 4.2215,-17.1951 1.9563,-5.56 4.4275,-10.3993 7.5164,-11.6348 0.2059,-0.103 0.4117,-0.103 0.6178,-0.2059 3.0889,-0.7208 7.7222,1.6473 12.6645,4.3245 5.0451,2.677 10.5023,5.457 16.0623,5.9718 2.2652,0.206 4.5304,0 6.7956,-0.5148 2.7801,-0.7208 5.4571,-1.8533 7.9282,-3.2948 5.6631,-3.0889 11.2231,-8.7519 14.312,-12.7675 8.1341,-10.6053 10.2963,-15.1357 8.4429,-14.8268 0,0 0,0.103 0,0.103 -0.2058,0.9267 -11.7378,16.0623 -20.6957,22.0342 -0.9266,0.6177 -1.8533,1.2355 -2.78,1.6474 -2.1622,1.2356 -5.8689,2.2653 -8.237,2.883 -1.8534,0.4118 -3.6037,0.5148 -5.4571,0.4118 -4.6333,-0.4118 -9.6786,-3.0889 -14.312,-5.457 -5.7659,-3.0889 -11.017,-5.869 -15.7534,-4.7364 -0.4119,0.103 -0.8237,0.3089 -1.2356,0.4119 -4.5303,1.8533 -7.7223,7.7223 -9.8845,14.312 -2.1622,6.1778 -3.5008,13.0763 -4.4275,17.7097l-0.1029 0.103c0,0.4119 -0.3089,2.0592 -0.8238,1.1325 -0.4117,-0.8236 -0.7206,-1.7503 -1.2355,-2.8829l-0.4118 -0.9266c-2.4711,-5.4572 -6.1778,-13.5912 -10.3994,-21.1076 -4.3245,-7.6193 -9.1637,-14.6209 -13.5912,-17.5038 -2.78,-1.6475 -5.2512,-2.0594 -7.6193,-1.5445 -5.56,1.3385 -10.2964,8.0312 -14.8268,15.4446 0,0 0,-0.103 0,-0.103 -0.7208,-3.3978 -1.9563,-6.3837 -3.6037,-8.8549 -2.1622,-3.0889 -4.9422,-5.2511 -8.34,-6.2808 -2.5742,-0.7208 -5.0453,-0.7208 -7.6194,-0.103 -3.1918,0.7208 -6.2807,2.4711 -9.1637,4.9423 -4.8393,4.2215 -9.0609,10.8111 -11.326,18.8423 -0.4119,1.1327 -0.7208,2.2653 -0.9267,3.3978 -0.206,1.2356 -0.4119,2.3683 -0.6178,3.5008 -0.7208,5.5601 -0.3089,10.9142 1.0296,15.3416 0,0 -0.1029,-0.1029 -0.1029,-0.1029 -1.0297,-1.4416 -2.0594,-2.78 -3.0889,-4.1186 -4.1186,-5.457 -7.6194,-10.0904 -10.3994,-11.2231 -0.9267,-0.3089 -1.7504,-0.4118 -2.4712,-0.2059 -1.4414,0.3089 -2.4711,1.6475 -3.1917,3.5008 -1.2356,3.2948 -1.4416,8.8549 -1.6475,13.9001 -0.103,0.8237 -0.103,1.5445 -0.103,2.1623 0,-0.103 0,-0.206 -0.1029,-0.3089 -0.206,-3.3978 -0.4119,-7.8253 -0.4119,-13.4883 0.103,-11.1201 1.1326,-26.5647 2.4711,-41.9062 0.6178,-6.8986 1.3386,-13.6942 2.0593,-20.078 2.6771,-9.0608 4.9422,-17.4009 6.1778,-23.6816 1.2356,-5.8689 1.6475,-9.9875 1.5444,-11.9438 -0.2058,-1.9563 -1.0295,-2.986 -2.3681,-3.089l0 0c-0.3089,-0.1028 -0.6178,-0.1028 -0.8236,0 -0.8238,0.2061 -1.6475,0.9267 -2.1623,2.1623 -1.0297,2.0593 -2.2652,6.6927 -3.6038,14.209 -1.0295,5.663 -2.0592,13.1794 -2.9859,21.5195 -0.8237,2.8829 -1.6475,5.7659 -2.5741,8.6489 -3.8096,12.6646 -8.1341,25.8439 -11.7379,36.7581 -4.7362,14.3118 -8.3401,24.9172 -11.0171,32.4335 0,0 0,0 0,-0.103 -4.2214,-32.6394 -8.8548,-68.2649 -11.7378,-88.3428 -2.0593,-14.6209 -3.5008,-21.2105 -4.6334,-21.7254 -0.4119,-0.2059 -0.7208,-0.2059 -1.0297,-0.2059 -2.0592,0.6178 -2.3681,7.0015 -1.7503,17.6068 4.4275,38.3025 4.7363,71.045 3.5008,85.7687 -0.5149,6.6928 0,10.0906 0.8236,9.9876 1.9564,-0.3089 5.972,-22.1372 1.6475,-70.0153zm81.7532 20.0779c1.7503,-0.5149 3.6036,-0.5149 5.3541,0 2.3681,0.7207 4.4274,2.3681 5.9718,4.6334 1.7505,2.574 2.8831,5.8689 3.3978,9.5756 0.3089,2.3681 0.3089,4.9422 0.103,7.6193 -0.2059,2.5741 -0.7208,5.2511 -1.5444,7.9281 -2.0593,7.1045 -5.7659,12.9735 -10.0904,16.7831 -2.3683,2.0593 -4.8394,3.3979 -7.3105,4.0156 -1.8534,0.4119 -3.6037,0.4119 -5.3541,-0.103 -3.3978,-1.0295 -5.9719,-3.8095 -7.6194,-7.7222 -1.8533,-4.2215 -2.4711,-9.7816 -1.6473,-15.6505 0.1029,-1.1326 0.3089,-2.1622 0.5148,-3.1919 0.2059,-1.0296 0.5148,-2.0592 0.8237,-3.1918 2.0593,-7.1045 5.766,-12.9734 10.0905,-16.7831 2.3681,-1.9564 4.8392,-3.3978 7.3104,-3.9126zm-86.4896 -56.939c0,0 -1.2355,-2.9859 0,0zm-11.9437 87.4162c2.0592,2.883 3.2948,6.7956 3.6037,11.326 0.103,1.8533 0,3.7067 -0.2059,5.663 -0.7208,6.5897 -3.1919,12.5616 -6.5897,16.989 -2.78,3.7067 -6.1779,6.1779 -9.6787,7.0015 -0.6177,0.206 -1.2355,0.3089 -1.8533,0.3089 -0.6178,0 -1.1326,0 -1.6473,0l0 0c-2.8831,-0.4118 -5.4572,-2.0592 -7.3105,-4.7362 -1.9563,-2.8831 -3.2948,-6.7956 -3.5007,-11.3261 -0.103,-1.8534 -0.103,-3.7067 0.1028,-5.6629 0.7208,-6.4868 3.192,-12.5617 6.6928,-16.9891 2.78,-3.6038 6.0748,-6.1778 9.5756,-7.0016 0.6178,-0.1029 1.2356,-0.2059 1.9562,-0.3089 0.5149,0 1.0297,0 1.6475,0.103l0 0c2.883,0.3089 5.3541,1.9564 7.2075,4.6334zm-23.8876 -0.103c-3.8097,5.0453 -6.6926,11.8409 -7.5164,19.1513 -0.2059,2.2652 -0.3089,4.4274 -0.1029,6.3838 0.3089,5.457 1.8533,10.0904 4.3245,13.5912 2.574,3.7067 6.0748,6.0748 10.2963,6.4867l0 0c0.8237,0.1029 1.6474,0.1029 2.3682,0.1029 0.9267,-0.1029 1.7503,-0.2059 2.574,-0.4118 4.5305,-1.0297 8.752,-4.1186 12.1498,-8.546 3.9126,-5.0452 6.6926,-11.8408 7.5164,-19.1513 0.3089,-2.2651 0.3089,-4.4274 0.2059,-6.3837 -0.3089,-5.3542 -1.8534,-10.0904 -4.3245,-13.5912 -2.5742,-3.7067 -6.1778,-6.0748 -10.3993,-6.4867l0 0c-0.7208,-0.103 -1.5445,-0.103 -2.3683,-0.103 -0.8236,0.103 -1.7503,0.206 -2.574,0.4119 -4.5305,1.0296 -8.7519,4.2214 -12.1497,8.5459z"/>
   <path class="fil1" d="M30.6681 9.9431l-3.3382 0 -10.8907 26.9974 -10.849 -26.9974 -3.3799 0 12.6851 30.8363 3.0042 0 12.7685 -30.8363zm6.1338 30.8363l0 -22.8247 -3.0877 0 0 22.8247 3.0877 0zm0 -25.3283l0 -5.2576 -3.0877 0 0 5.2576 3.0877 0zm25.4536 25.3283l0 -11.9756c0,-8.0116 -4.0475,-11.3915 -9.7641,-11.3915 -3.0044,0 -5.4245,1.1683 -7.344,3.505l0 -2.9626 -3.0877 0 0 22.8247 3.0877 0 0 -12.5598c0,-5.5914 2.8375,-7.9699 6.9684,-7.9699 4.2145,0 7.0519,2.3368 7.0519,8.5541l0 11.9756 3.0878 0zm8.3453 0l0 -22.8247 -3.0877 0 0 22.8247 3.0877 0zm4.9656 -29.5428l-1.4187 -2.4201 -8.0534 4.8403 1.4188 2.3368 8.0533 -4.757zm23.0334 22.8248l-3.5051 0c-2.3785,3.1712 -4.59,4.423 -7.803,4.423 -5.1324,0 -9.1799,-4.0475 -9.1799,-9.0965 0,-5.1325 3.964,-9.1382 9.0547,-9.1382 3.3799,0 6.1757,1.6274 7.9282,4.6317l3.4633 0c-1.8359,-4.59 -6.2173,-7.4691 -11.3498,-7.4691 -6.8431,0 -12.226,5.2576 -12.226,11.8922 0,6.8015 5.4246,12.0174 12.4347,12.0174 4.7151,0 8.4289,-2.0446 11.1829,-7.2605zm7.3439 6.718l0 -22.8247 -3.0877 0 0 22.8247 3.0877 0zm0 -25.3283l0 -5.2576 -3.0877 0 0 5.2576 3.0877 0zm25.3701 25.3283l0 -22.8247 -3.0877 0 0 11.7253c0,6.2174 -2.921,8.8044 -7.0937,8.8044 -4.4231,0 -6.8433,-2.4202 -6.8433,-8.2202l0 -12.3095 -3.0877 0 0 12.3095c0,7.9699 3.8806,11.0577 9.6806,11.0577 3.5469,0 5.8001,-1.2518 7.3441,-4.0893l0 3.5468 3.0877 0zm17.6922 -6.5512c0,-2.7957 -1.2934,-4.715 -3.964,-5.8418 -3.4633,-1.4187 -3.6303,-1.5021 -4.2978,-1.8359 -1.4189,-0.7094 -2.0864,-1.6691 -2.0864,-3.0044 0,-1.836 1.4604,-3.2964 3.2964,-3.2964 2.0029,0 3.3382,1.1683 3.3382,3.3382l3.1295 0c0,-3.672 -2.7539,-6.1756 -6.426,-6.1756 -3.7137,0 -6.4676,2.7123 -6.4676,6.4259 0,1.6274 0.5841,3.0461 1.7107,4.0893 0.918,0.8763 1.0015,0.918 4.2145,2.2115 3.2964,1.3352 4.423,2.0863 4.423,4.3814 0,2.295 -1.6273,3.964 -3.8389,3.964 -2.5453,0 -4.2978,-1.6273 -4.2978,-4.423l-3.0461 0c0,4.423 2.9627,7.2605 7.3439,7.2605 4.0893,0 6.9684,-2.921 6.9684,-7.0937l0 0z"/>
  </g>
 </g>
</svg>
